<?xml version="1.0" standalone="no"?>
<!DOCTYPE svg PUBLIC "-//W3C//DTD SVG 20010904//EN"
 "http://www.w3.org/TR/2001/REC-SVG-20010904/DTD/svg10.dtd">
<svg version="1.0" xmlns="http://www.w3.org/2000/svg"
 width="260.000000pt" height="260.000000pt" viewBox="0 0 260.000000 260.000000"
 preserveAspectRatio="xMidYMid meet">
<metadata>
Created by potrace 1.11, written by Peter Selinger 2001-2013
</metadata>
<g transform="translate(0.000000,260.000000) scale(0.100000,-0.100000)"
fill="#000000" stroke="none">
<path d="M584 2501 c-110 -36 -167 -72 -254 -160 -96 -98 -144 -188 -176 -332
-12 -56 -4 -206 15 -272 22 -75 63 -162 97 -204 l22 -28 235 0 235 -1 82 201
c46 110 92 208 103 218 23 20 66 22 90 5 9 -7 72 -137 140 -288 68 -151 130
-287 138 -302 14 -28 16 -26 129 203 63 127 120 234 125 239 22 18 65 19 86 1
12 -9 51 -75 88 -147 l66 -129 274 0 274 0 39 63 c176 278 103 655 -164 845
-190 135 -417 153 -626 50 -58 -28 -100 -61 -181 -140 l-106 -102 -75 77 c-41
42 -93 91 -115 108 -151 116 -362 154 -541 95z"/>
<path d="M946 1698 c-18 -16 -53 -90 -109 -228 l-82 -205 -317 -1 c-242 -1
-321 -4 -333 -14 -20 -16 -21 -113 -1 -129 9 -8 118 -11 382 -9 l368 3 53 130
c79 195 84 204 93 180 36 -94 255 -584 267 -597 21 -23 75 -23 96 0 16 18 61
107 182 360 32 67 62 119 67 114 4 -4 28 -49 52 -100 l45 -92 379 0 c281 0
381 3 390 12 18 18 15 113 -3 128 -11 9 -98 13 -346 14 l-331 1 -68 141 c-52
108 -73 144 -91 150 -29 10 -59 6 -78 -9 -12 -10 -77 -141 -204 -409 -18 -38
-34 -68 -37 -68 -3 0 -24 44 -47 98 -23 53 -83 192 -133 307 -51 116 -97 215
-103 221 -25 24 -65 25 -91 2z"/>
<path d="M1000 1104 c-12 -27 -40 -93 -62 -146 l-40 -98 -194 -2 -194 -3 153
-157 c83 -86 256 -262 382 -392 127 -130 240 -239 252 -242 47 -12 33 -25 616
571 l215 220 -226 3 -227 2 -44 91 c-24 49 -45 89 -46 87 -2 -2 -51 -99 -110
-215 -59 -117 -111 -215 -116 -219 -23 -14 -58 -13 -77 4 -12 9 -73 134 -137
277 -65 143 -119 262 -121 264 -2 2 -13 -18 -24 -45z"/>
</g>
</svg>
